<svg xmlns="http://www.w3.org/2000/svg" xmlns:xlink="http://www.w3.org/1999/xlink" width="500" zoomAndPan="magnify" viewBox="0 0 375 374.999991" height="500" preserveAspectRatio="xMidYMid meet" version="1.0"><defs><g/><clipPath id="51c614ac3f"><path d="M 260 237 L 299 237 L 299 283.394531 L 260 283.394531 Z M 260 237 " clip-rule="nonzero"/></clipPath><clipPath id="489e587e72"><path d="M 277 224.894531 L 299 224.894531 L 299 258 L 277 258 Z M 277 224.894531 " clip-rule="nonzero"/></clipPath><clipPath id="be58da7c17"><path d="M 94 223 L 134 223 L 134 274 L 94 274 Z M 94 223 " clip-rule="nonzero"/></clipPath><clipPath id="eb66cf7af1"><path d="M 47.210938 173.785156 L 150.171875 220.953125 L 115.5 296.640625 L 12.539062 249.472656 Z M 47.210938 173.785156 " clip-rule="nonzero"/></clipPath><clipPath id="dd8507af63"><path d="M 47.210938 173.785156 L 150.171875 220.953125 L 115.5 296.640625 L 12.539062 249.472656 Z M 47.210938 173.785156 " clip-rule="nonzero"/></clipPath><clipPath id="4ee1e9fbbe"><path d="M 29 196 L 69 196 L 69 248 L 29 248 Z M 29 196 " clip-rule="nonzero"/></clipPath><clipPath id="6a0eaf7510"><path d="M 47.210938 173.785156 L 150.171875 220.953125 L 115.5 296.640625 L 12.539062 249.472656 Z M 47.210938 173.785156 " clip-rule="nonzero"/></clipPath><clipPath id="c91985087c"><path d="M 47.210938 173.785156 L 150.171875 220.953125 L 115.5 296.640625 L 12.539062 249.472656 Z M 47.210938 173.785156 " clip-rule="nonzero"/></clipPath><clipPath id="d1532909ea"><path d="M 47 200 L 114 200 L 114 269 L 47 269 Z M 47 200 " clip-rule="nonzero"/></clipPath><clipPath id="fb3d2fdb48"><path d="M 47.210938 173.785156 L 150.171875 220.953125 L 115.5 296.640625 L 12.539062 249.472656 Z M 47.210938 173.785156 " clip-rule="nonzero"/></clipPath><clipPath id="d23a788a04"><path d="M 47.210938 173.785156 L 150.171875 220.953125 L 115.5 296.640625 L 12.539062 249.472656 Z M 47.210938 173.785156 " clip-rule="nonzero"/></clipPath></defs><g fill="#2c366c" fill-opacity="1"><g transform="translate(25.407754, 164.26365)"><g><path d="M 90.46875 -84.5625 C 92.375 -84.289062 93.679688 -83.710938 94.390625 -82.828125 C 95.109375 -81.941406 95.46875 -80.785156 95.46875 -79.359375 C 95.46875 -74.660156 92.953125 -72.484375 87.921875 -72.828125 L 84.359375 -73.140625 C 80.347656 -73.472656 76.351562 -73.738281 72.375 -73.9375 C 68.394531 -74.144531 64.226562 -74.25 59.875 -74.25 L 55.28125 -74.25 C 54.46875 -64.1875 53.617188 -55.007812 52.734375 -46.71875 L 70.28125 -47.015625 C 72.789062 -47.015625 74.472656 -46.570312 75.328125 -45.6875 C 76.179688 -44.8125 76.609375 -43.625 76.609375 -42.125 C 76.609375 -39.8125 75.925781 -37.992188 74.5625 -36.671875 C 73.195312 -35.347656 71.257812 -34.6875 68.75 -34.6875 L 51.3125 -34.6875 L 50.6875 -30.296875 C 49.257812 -19.078125 46.21875 -11.085938 41.5625 -6.328125 C 36.90625 -1.566406 30.5 0.8125 22.34375 0.8125 C 17.71875 0.8125 13.46875 -0.1875 9.59375 -2.1875 C 5.71875 -4.195312 2.859375 -6.628906 1.015625 -9.484375 C 0.265625 -10.640625 -0.109375 -12.035156 -0.109375 -13.671875 C -0.109375 -15.296875 0.28125 -16.71875 1.0625 -17.9375 C 1.851562 -19.164062 2.828125 -19.78125 3.984375 -19.78125 C 4.796875 -19.78125 5.59375 -19.507812 6.375 -18.96875 C 7.15625 -18.425781 8.160156 -17.375 9.390625 -15.8125 C 12.648438 -11.53125 16.691406 -9.390625 21.515625 -9.390625 C 25.398438 -9.390625 28.648438 -10.96875 31.265625 -14.125 C 33.878906 -17.289062 35.5625 -22.269531 36.3125 -29.0625 L 36.921875 -34.6875 L 32.03125 -34.6875 C 30.46875 -34.6875 29.125 -35.125 28 -36 C 26.875 -36.882812 26.3125 -38.144531 26.3125 -39.78125 C 26.3125 -41.882812 26.851562 -43.5 27.9375 -44.625 C 29.03125 -45.75 30.628906 -46.3125 32.734375 -46.3125 C 34.640625 -46.3125 36.515625 -46.34375 38.359375 -46.40625 C 39.171875 -53.882812 40.050781 -62.960938 41 -73.640625 C 33.65625 -72.960938 28.488281 -71.773438 25.5 -70.078125 C 22.507812 -68.378906 21.015625 -65.863281 21.015625 -62.53125 C 21.015625 -60.21875 21.691406 -58.003906 23.046875 -55.890625 C 23.453125 -55.285156 23.65625 -54.675781 23.65625 -54.0625 C 23.65625 -52.832031 22.972656 -51.757812 21.609375 -50.84375 C 20.253906 -49.925781 18.726562 -49.46875 17.03125 -49.46875 C 15.195312 -49.46875 13.632812 -50.015625 12.34375 -51.109375 C 11.53125 -51.785156 10.75 -53.175781 10 -55.28125 C 9.25 -57.394531 8.875 -59.742188 8.875 -62.328125 C 8.875 -70.753906 13.207031 -76.867188 21.875 -80.671875 C 30.550781 -84.484375 43.21875 -86.390625 59.875 -86.390625 C 71.4375 -86.390625 81.632812 -85.78125 90.46875 -84.5625 Z M 90.46875 -84.5625 "/></g></g></g><g fill="#2c366c" fill-opacity="1"><g transform="translate(98.031705, 164.26365)"><g><path d="M 12.140625 0.515625 C 9.554688 0.515625 7.734375 -0.84375 6.671875 -3.5625 C 5.617188 -6.289062 5.09375 -10.644531 5.09375 -16.625 C 5.09375 -25.46875 6.351562 -33.863281 8.875 -41.8125 C 9.488281 -43.789062 10.488281 -45.238281 11.875 -46.15625 C 13.269531 -47.070312 15.226562 -47.53125 17.75 -47.53125 C 19.101562 -47.53125 20.050781 -47.359375 20.59375 -47.015625 C 21.144531 -46.679688 21.421875 -46.035156 21.421875 -45.078125 C 21.421875 -43.992188 20.910156 -41.546875 19.890625 -37.734375 C 19.210938 -35.015625 18.664062 -32.632812 18.25 -30.59375 C 17.84375 -28.5625 17.503906 -26.046875 17.234375 -23.046875 C 19.484375 -28.898438 22 -33.660156 24.78125 -37.328125 C 27.570312 -41.003906 30.3125 -43.625 33 -45.1875 C 35.6875 -46.75 38.148438 -47.53125 40.390625 -47.53125 C 44.804688 -47.53125 47.015625 -45.320312 47.015625 -40.90625 C 47.015625 -40.019531 46.710938 -37.875 46.109375 -34.46875 C 45.554688 -31.75 45.28125 -30.050781 45.28125 -29.375 C 45.28125 -27 46.132812 -25.8125 47.84375 -25.8125 C 49.738281 -25.8125 52.1875 -27.304688 55.1875 -30.296875 C 56.070312 -31.179688 56.988281 -31.625 57.9375 -31.625 C 58.820312 -31.625 59.519531 -31.234375 60.03125 -30.453125 C 60.539062 -29.671875 60.796875 -28.632812 60.796875 -27.34375 C 60.796875 -24.820312 60.113281 -22.847656 58.75 -21.421875 C 56.84375 -19.453125 54.613281 -17.769531 52.0625 -16.375 C 49.519531 -14.976562 46.820312 -14.28125 43.96875 -14.28125 C 40.363281 -14.28125 37.625 -15.195312 35.75 -17.03125 C 33.882812 -18.863281 32.953125 -21.347656 32.953125 -24.484375 C 32.953125 -25.503906 33.050781 -26.523438 33.25 -27.546875 C 33.382812 -28.898438 33.453125 -29.816406 33.453125 -30.296875 C 33.453125 -31.378906 33.078125 -31.921875 32.328125 -31.921875 C 31.304688 -31.921875 29.960938 -30.78125 28.296875 -28.5 C 26.640625 -26.226562 24.992188 -23.222656 23.359375 -19.484375 C 21.722656 -15.742188 20.394531 -11.800781 19.375 -7.65625 C 18.632812 -4.457031 17.769531 -2.296875 16.78125 -1.171875 C 15.789062 -0.046875 14.242188 0.515625 12.140625 0.515625 Z M 12.140625 0.515625 "/></g></g></g><g fill="#2c366c" fill-opacity="1"><g transform="translate(144.441671, 164.26365)"><g><path d="M 50.390625 -22.75 C 51.273438 -22.75 51.972656 -22.335938 52.484375 -21.515625 C 52.992188 -20.703125 53.25 -19.582031 53.25 -18.15625 C 53.25 -15.4375 52.601562 -13.328125 51.3125 -11.828125 C 48.789062 -8.765625 45.234375 -5.941406 40.640625 -3.359375 C 36.054688 -0.773438 31.144531 0.515625 25.90625 0.515625 C 18.769531 0.515625 13.226562 -1.421875 9.28125 -5.296875 C 5.332031 -9.179688 3.359375 -14.488281 3.359375 -21.21875 C 3.359375 -25.90625 4.34375 -30.269531 6.3125 -34.3125 C 8.289062 -38.363281 11.03125 -41.578125 14.53125 -43.953125 C 18.03125 -46.335938 21.992188 -47.53125 26.421875 -47.53125 C 30.359375 -47.53125 33.515625 -46.359375 35.890625 -44.015625 C 38.273438 -41.671875 39.46875 -38.488281 39.46875 -34.46875 C 39.46875 -29.78125 37.785156 -25.753906 34.421875 -22.390625 C 31.054688 -19.023438 25.363281 -16.351562 17.34375 -14.375 C 19.039062 -11.25 22.269531 -9.6875 27.03125 -9.6875 C 30.09375 -9.6875 33.578125 -10.753906 37.484375 -12.890625 C 41.390625 -15.035156 44.773438 -17.84375 47.640625 -21.3125 C 48.453125 -22.269531 49.367188 -22.75 50.390625 -22.75 Z M 24.6875 -37.53125 C 22.164062 -37.53125 20.035156 -36.066406 18.296875 -33.140625 C 16.566406 -30.222656 15.703125 -26.691406 15.703125 -22.546875 L 15.703125 -22.34375 C 19.710938 -23.289062 22.875 -24.71875 25.1875 -26.625 C 27.5 -28.53125 28.65625 -30.738281 28.65625 -33.25 C 28.65625 -34.539062 28.296875 -35.578125 27.578125 -36.359375 C 26.867188 -37.140625 25.90625 -37.53125 24.6875 -37.53125 Z M 24.6875 -37.53125 "/></g></g></g><g fill="#2c366c" fill-opacity="1"><g transform="translate(184.527644, 164.26365)"><g><path d="M 12.140625 0.515625 C 9.554688 0.515625 7.734375 -0.84375 6.671875 -3.5625 C 5.617188 -6.289062 5.09375 -10.644531 5.09375 -16.625 C 5.09375 -25.46875 6.351562 -33.863281 8.875 -41.8125 C 9.488281 -43.789062 10.488281 -45.238281 11.875 -46.15625 C 13.269531 -47.070312 15.226562 -47.53125 17.75 -47.53125 C 19.101562 -47.53125 20.050781 -47.359375 20.59375 -47.015625 C 21.144531 -46.679688 21.421875 -46.035156 21.421875 -45.078125 C 21.421875 -43.992188 20.910156 -41.546875 19.890625 -37.734375 C 19.210938 -35.015625 18.664062 -32.632812 18.25 -30.59375 C 17.84375 -28.5625 17.503906 -26.046875 17.234375 -23.046875 C 19.484375 -28.898438 22 -33.660156 24.78125 -37.328125 C 27.570312 -41.003906 30.3125 -43.625 33 -45.1875 C 35.6875 -46.75 38.148438 -47.53125 40.390625 -47.53125 C 44.804688 -47.53125 47.015625 -45.320312 47.015625 -40.90625 C 47.015625 -38.25 46.269531 -33.453125 44.78125 -26.515625 C 43.488281 -20.597656 42.84375 -16.691406 42.84375 -14.796875 C 42.84375 -12.066406 43.828125 -10.703125 45.796875 -10.703125 C 47.160156 -10.703125 48.773438 -11.535156 50.640625 -13.203125 C 52.515625 -14.867188 55.015625 -17.570312 58.140625 -21.3125 C 58.953125 -22.269531 59.867188 -22.75 60.890625 -22.75 C 61.773438 -22.75 62.472656 -22.335938 62.984375 -21.515625 C 63.492188 -20.703125 63.75 -19.582031 63.75 -18.15625 C 63.75 -15.4375 63.101562 -13.328125 61.8125 -11.828125 C 58.882812 -8.222656 55.738281 -5.265625 52.375 -2.953125 C 49.007812 -0.640625 45.1875 0.515625 40.90625 0.515625 C 37.4375 0.515625 34.816406 -0.488281 33.046875 -2.5 C 31.273438 -4.507812 30.390625 -7.414062 30.390625 -11.21875 C 30.390625 -13.125 30.867188 -16.523438 31.828125 -21.421875 C 32.710938 -25.703125 33.15625 -28.660156 33.15625 -30.296875 C 33.15625 -31.378906 32.78125 -31.921875 32.03125 -31.921875 C 31.144531 -31.921875 29.898438 -30.78125 28.296875 -28.5 C 26.703125 -26.226562 25.070312 -23.222656 23.40625 -19.484375 C 21.738281 -15.742188 20.394531 -11.800781 19.375 -7.65625 C 18.632812 -4.457031 17.769531 -2.296875 16.78125 -1.171875 C 15.789062 -0.046875 14.242188 0.515625 12.140625 0.515625 Z M 12.140625 0.515625 "/></g></g></g><g fill="#2c366c" fill-opacity="1"><g transform="translate(235.119624, 164.26365)"><g><path d="M 24.375 0.515625 C 17.707031 0.515625 12.519531 -1.367188 8.8125 -5.140625 C 5.113281 -8.921875 3.265625 -13.90625 3.265625 -20.09375 C 3.265625 -25.601562 4.351562 -30.429688 6.53125 -34.578125 C 8.707031 -38.722656 11.53125 -41.914062 15 -44.15625 C 18.46875 -46.40625 22.101562 -47.53125 25.90625 -47.53125 C 29.644531 -47.53125 32.550781 -46.425781 34.625 -44.21875 C 36.695312 -42.007812 37.734375 -39.171875 37.734375 -35.703125 C 37.734375 -32.847656 37.101562 -30.429688 35.84375 -28.453125 C 34.59375 -26.484375 32.945312 -25.5 30.90625 -25.5 C 29.613281 -25.5 28.578125 -25.804688 27.796875 -26.421875 C 27.015625 -27.035156 26.625 -27.882812 26.625 -28.96875 C 26.625 -29.445312 26.691406 -29.988281 26.828125 -30.59375 C 26.960938 -31.207031 27.0625 -31.648438 27.125 -31.921875 C 27.46875 -32.941406 27.640625 -33.894531 27.640625 -34.78125 C 27.640625 -35.664062 27.414062 -36.34375 26.96875 -36.8125 C 26.53125 -37.289062 25.90625 -37.53125 25.09375 -37.53125 C 23.53125 -37.53125 22.066406 -36.832031 20.703125 -35.4375 C 19.347656 -34.050781 18.257812 -32.164062 17.4375 -29.78125 C 16.625 -27.40625 16.21875 -24.789062 16.21875 -21.9375 C 16.21875 -14.039062 19.648438 -10.09375 26.515625 -10.09375 C 29.304688 -10.09375 32.316406 -11.023438 35.546875 -12.890625 C 38.773438 -14.765625 41.953125 -17.570312 45.078125 -21.3125 C 45.898438 -22.269531 46.820312 -22.75 47.84375 -22.75 C 48.71875 -22.75 49.410156 -22.335938 49.921875 -21.515625 C 50.429688 -20.703125 50.6875 -19.582031 50.6875 -18.15625 C 50.6875 -15.570312 50.039062 -13.460938 48.75 -11.828125 C 45.5625 -7.890625 41.738281 -4.847656 37.28125 -2.703125 C 32.820312 -0.554688 28.519531 0.515625 24.375 0.515625 Z M 24.375 0.515625 "/></g></g></g><g fill="#2c366c" fill-opacity="1"><g transform="translate(272.655602, 164.26365)"><g><path d="M 61.5 -22.75 C 62.382812 -22.75 63.082031 -22.335938 63.59375 -21.515625 C 64.101562 -20.703125 64.359375 -19.582031 64.359375 -18.15625 C 64.359375 -15.4375 63.710938 -13.328125 62.421875 -11.828125 C 59.296875 -8.222656 56.082031 -5.265625 52.78125 -2.953125 C 49.488281 -0.640625 45.734375 0.515625 41.515625 0.515625 C 38.046875 0.515625 35.425781 -0.488281 33.65625 -2.5 C 31.894531 -4.507812 31.015625 -7.414062 31.015625 -11.21875 C 31.015625 -13.125 31.488281 -16.523438 32.4375 -21.421875 C 33.320312 -25.703125 33.765625 -28.660156 33.765625 -30.296875 C 33.765625 -31.378906 33.390625 -31.921875 32.640625 -31.921875 C 31.753906 -31.921875 30.492188 -30.78125 28.859375 -28.5 C 27.234375 -26.226562 25.601562 -23.222656 23.96875 -19.484375 C 22.332031 -15.742188 21.003906 -11.800781 19.984375 -7.65625 C 18.691406 -2.207031 15.5 0.515625 10.40625 0.515625 C 8.363281 0.515625 7.019531 -0.210938 6.375 -1.671875 C 5.726562 -3.140625 5.40625 -5.78125 5.40625 -9.59375 C 5.40625 -11.769531 5.441406 -13.503906 5.515625 -14.796875 L 5.609375 -22.953125 C 5.609375 -33.421875 6.675781 -44.332031 8.8125 -55.6875 C 10.957031 -67.039062 14.117188 -76.578125 18.296875 -84.296875 C 22.484375 -92.015625 27.503906 -95.875 33.359375 -95.875 C 36.484375 -95.875 39.015625 -94.53125 40.953125 -91.84375 C 42.890625 -89.164062 43.859375 -85.679688 43.859375 -81.390625 C 43.859375 -74.523438 41.851562 -67.398438 37.84375 -60.015625 C 33.832031 -52.640625 27.304688 -44.023438 18.265625 -34.171875 C 18.054688 -30.628906 17.953125 -26.988281 17.953125 -23.25 C 20.191406 -29.03125 22.6875 -33.738281 25.4375 -37.375 C 28.195312 -41.019531 30.921875 -43.625 33.609375 -45.1875 C 36.296875 -46.75 38.757812 -47.53125 41 -47.53125 C 45.425781 -47.53125 47.640625 -45.320312 47.640625 -40.90625 C 47.640625 -38.25 46.890625 -33.453125 45.390625 -26.515625 C 44.097656 -20.597656 43.453125 -16.691406 43.453125 -14.796875 C 43.453125 -12.066406 44.4375 -10.703125 46.40625 -10.703125 C 47.769531 -10.703125 49.382812 -11.535156 51.25 -13.203125 C 53.125 -14.867188 55.625 -17.570312 58.75 -21.3125 C 59.5625 -22.269531 60.476562 -22.75 61.5 -22.75 Z M 31.21875 -85.78125 C 29.988281 -85.78125 28.625 -84.03125 27.125 -80.53125 C 25.632812 -77.03125 24.191406 -72.300781 22.796875 -66.34375 C 21.398438 -60.394531 20.257812 -53.921875 19.375 -46.921875 C 23.59375 -51.878906 27.078125 -57.28125 29.828125 -63.125 C 32.585938 -68.976562 33.96875 -74.285156 33.96875 -79.046875 C 33.96875 -81.222656 33.726562 -82.890625 33.25 -84.046875 C 32.769531 -85.203125 32.09375 -85.78125 31.21875 -85.78125 Z M 31.21875 -85.78125 "/></g></g></g><g clip-path="url(#51c614ac3f)"><path fill="#ffac33" d="M 260.734375 278.53125 C 260.890625 278.238281 261.136719 278.039062 261.410156 277.894531 C 264 275.132812 262.160156 271.890625 262.160156 271.890625 C 262.160156 270.992188 260.539062 268.648438 262.160156 268.648438 L 263.78125 270.269531 C 265.402344 271.890625 265.402344 276.75 265.402344 276.75 L 268.640625 276.75 C 269.539062 276.75 270.261719 277.476562 270.261719 278.371094 C 270.261719 279.265625 269.539062 279.992188 268.640625 279.992188 L 266.847656 279.992188 L 267.207031 280.1875 C 267.996094 280.613281 268.289062 281.59375 267.863281 282.382812 C 267.4375 283.167969 266.453125 283.460938 265.664062 283.035156 L 261.386719 280.722656 C 260.601562 280.300781 260.308594 279.316406 260.734375 278.53125 Z M 272.078125 278.53125 C 272.234375 278.238281 272.480469 278.039062 272.753906 277.894531 C 275.339844 275.132812 273.503906 271.890625 273.503906 271.890625 C 273.503906 270.992188 271.882812 268.648438 273.503906 268.648438 L 275.125 270.269531 C 276.742188 271.890625 276.742188 276.75 276.742188 276.75 L 279.984375 276.75 C 280.882812 276.75 281.605469 277.476562 281.605469 278.371094 C 281.605469 279.265625 280.882812 279.992188 279.984375 279.992188 L 278.1875 279.992188 L 278.550781 280.1875 C 279.335938 280.613281 279.628906 281.59375 279.203125 282.382812 C 278.777344 283.167969 277.796875 283.460938 277.007812 283.035156 L 272.730469 280.722656 C 271.945312 280.300781 271.652344 279.316406 272.078125 278.53125 Z M 288.871094 241.101562 C 288.871094 242.890625 290.683594 244.34375 292.921875 244.34375 C 295.160156 244.34375 298.59375 242.722656 298.59375 241.101562 C 298.59375 239.480469 295.160156 237.859375 292.921875 237.859375 C 290.6875 237.859375 288.871094 239.3125 288.871094 241.101562 Z M 288.871094 241.101562 " fill-opacity="1" fill-rule="nonzero"/></g><g clip-path="url(#489e587e72)"><path fill="#dd2e44" d="M 279.148438 228.136719 C 282.390625 226.515625 284.011719 229.757812 284.011719 229.757812 C 284.011719 229.757812 284.011719 224.894531 288.871094 224.894531 C 293.734375 224.894531 293.734375 229.757812 293.734375 229.757812 C 293.734375 229.757812 298.59375 228.238281 298.59375 233 C 298.59375 235.398438 296.808594 236.90625 294.570312 236.867188 L 294.570312 244.34375 C 294.570312 245.960938 294.144531 249.203125 295.765625 250.824219 C 297.382812 252.445312 299.789062 257.304688 294.925781 257.304688 C 290.066406 257.304688 290.066406 250.824219 290.066406 245.960938 C 288.445312 247.582031 283.585938 247.582031 283.585938 239.480469 C 283.585938 238.074219 283.929688 237.03125 284.476562 236.238281 L 282.390625 236.238281 C 275.90625 236.238281 275.90625 229.757812 279.148438 228.136719 Z M 279.148438 228.136719 " fill-opacity="1" fill-rule="nonzero"/></g><path fill="#e1e8ed" d="M 248.359375 239.480469 C 241.878906 255.683594 248.359375 275.132812 269.425781 275.132812 C 281.957031 275.132812 290.492188 265.410156 292.113281 257.304688 C 294.019531 247.773438 293.734375 244.34375 293.734375 237.859375 C 293.734375 233.421875 290.300781 230.042969 285.628906 231.378906 C 274.289062 234.617188 277.527344 247.582031 266.183594 247.582031 C 249.980469 247.582031 252.847656 228.261719 248.359375 239.480469 Z M 248.359375 239.480469 " fill-opacity="1" fill-rule="nonzero"/><path fill="#292f33" d="M 287.25 237.859375 C 287.25 238.074219 287.292969 238.28125 287.375 238.480469 C 287.457031 238.679688 287.574219 238.855469 287.726562 239.007812 C 287.878906 239.15625 288.054688 239.273438 288.25 239.355469 C 288.449219 239.4375 288.65625 239.480469 288.871094 239.480469 C 289.085938 239.480469 289.292969 239.4375 289.492188 239.355469 C 289.691406 239.273438 289.867188 239.15625 290.019531 239.007812 C 290.167969 238.855469 290.285156 238.679688 290.367188 238.480469 C 290.449219 238.28125 290.492188 238.074219 290.492188 237.859375 C 290.492188 237.644531 290.449219 237.4375 290.367188 237.238281 C 290.285156 237.042969 290.167969 236.867188 290.019531 236.714844 C 289.867188 236.5625 289.691406 236.445312 289.492188 236.363281 C 289.292969 236.28125 289.085938 236.238281 288.871094 236.238281 C 288.65625 236.238281 288.449219 236.28125 288.25 236.363281 C 288.054688 236.445312 287.878906 236.5625 287.726562 236.714844 C 287.574219 236.867188 287.457031 237.042969 287.375 237.238281 C 287.292969 237.4375 287.25 237.644531 287.25 237.859375 Z M 287.25 237.859375 " fill-opacity="1" fill-rule="nonzero"/><g fill="#ed192e" fill-opacity="1"><g transform="translate(226.233447, 270.975479)"><g><path d="M 33.5625 -79.125 L 72.1875 -67.109375 C 81.132812 -64.328125 88.546875 -60.1875 94.421875 -54.6875 C 100.304688 -49.1875 104.195312 -42.769531 106.09375 -35.4375 C 107.988281 -28.113281 107.65625 -20.328125 105.09375 -12.078125 C 102.53125 -3.835938 98.390625 2.753906 92.671875 7.703125 C 86.953125 12.660156 80.109375 15.738281 72.140625 16.9375 C 64.179688 18.132812 55.726562 17.34375 46.78125 14.5625 L 8.15625 2.546875 Z M 51.578125 -4.171875 C 58.578125 -1.992188 64.8125 -2.226562 70.28125 -4.875 C 75.757812 -7.519531 79.585938 -12.34375 81.765625 -19.34375 C 83.941406 -26.351562 83.523438 -32.5 80.515625 -37.78125 C 77.515625 -43.0625 72.515625 -46.789062 65.515625 -48.96875 L 50.9375 -53.5 L 37 -8.703125 Z M 51.578125 -4.171875 "/></g></g></g><g fill="#e1e8ed" fill-opacity="1"><g transform="translate(121.008909, 273.312558)"><g><path d="M 135.71875 -81.34375 L 109.34375 0 L 84.71875 0 L 69.140625 -49.5 L 52.875 0 L 28.234375 0 L 1.859375 -81.34375 L 25.5625 -81.34375 L 41.953125 -29.40625 L 59.140625 -81.34375 L 80.296875 -81.34375 L 96.6875 -28.9375 L 113.765625 -81.34375 Z M 135.71875 -81.34375 "/></g></g></g><g clip-path="url(#be58da7c17)"><g clip-path="url(#eb66cf7af1)"><g clip-path="url(#dd8507af63)"><path fill="#dd2e44" d="M 98.949219 273.601562 L 94.28125 263.851562 L 120.039062 252.820312 L 111.574219 226.105469 L 122.003906 223.273438 L 133.125 258.8125 Z M 98.949219 273.601562 " fill-opacity="1" fill-rule="nonzero"/></g></g></g><g clip-path="url(#4ee1e9fbbe)"><g clip-path="url(#6a0eaf7510)"><g clip-path="url(#c91985087c)"><path fill="#dd2e44" d="M 41.070312 247.085938 L 29.949219 211.546875 L 64.128906 196.757812 L 68.792969 206.507812 L 42.785156 217.425781 L 51.5 244.253906 Z M 41.070312 247.085938 " fill-opacity="1" fill-rule="nonzero"/></g></g></g><g clip-path="url(#d1532909ea)"><g clip-path="url(#fb3d2fdb48)"><g clip-path="url(#d23a788a04)"><path fill="#2c366c" d="M 55.4375 268.894531 L 47.375 261.242188 L 105.121094 200.316406 L 113.1875 207.96875 Z M 55.4375 268.894531 " fill-opacity="1" fill-rule="nonzero"/></g></g></g></svg>